<svg width="2352" height="1231" viewBox="0 0 2352 1231" fill="none" xmlns="http://www.w3.org/2000/svg">
<path fill-rule="evenodd" clip-rule="evenodd" d="M1590.13 0.936629C1583.65 2.02463 1572.93 5.32563 1561.97 9.60664C1553.38 12.9646 1526.3 26.0466 1519.97 29.8976C1503.54 39.8926 1449.99 66.3556 1426.47 76.1006C1405.17 84.9246 1351.97 104.366 1320.97 114.651C1269.82 131.621 1238.07 143.304 1208.97 155.861C1185.87 165.83 1145.22 188.318 1130.47 199.296C1127.44 201.547 1123.32 204.514 1121.31 205.889C1109.11 214.21 1083.26 238.378 1071.56 252.389C1043.36 286.171 1027.18 320.706 1019.01 364.513C1014.45 388.955 1015.16 397.68 1022.05 401.941C1027.45 405.279 1032.3 404.268 1045.14 397.13C1051.1 393.817 1059.12 389.429 1062.97 387.377C1066.82 385.326 1072.89 382.051 1076.47 380.1C1084.05 375.965 1122.27 356.889 1122.98 356.889C1123.25 356.889 1132.13 352.906 1142.72 348.037C1202.15 320.713 1279.53 294.8 1350.72 278.383C1393.38 268.544 1414.61 264.653 1465.47 257.348C1479.51 255.331 1509.73 252.4 1538.47 250.267C1574.15 247.62 1638.18 247.84 1674.47 250.736C1715.83 254.036 1756.6 259.261 1784.97 264.896C1790.47 265.988 1796.9 266.884 1799.27 266.886C1806.63 266.891 1812 262.918 1813.48 256.364C1814.71 250.897 1813.16 246.386 1795.26 203.389C1792.51 196.789 1789.6 189.603 1788.8 187.42C1785.83 179.401 1765.23 139.913 1755.66 123.889C1722.36 68.1546 1677.8 21.3376 1644.9 7.51263C1631.18 1.74963 1621.83 -0.127371 1607.53 0.00662888C1600.62 0.0706289 1592.79 0.489629 1590.13 0.936629ZM2128.11 32.9836C2109.48 34.9506 2091.03 41.6976 2076.83 51.7376C2060.36 63.3846 2047.24 83.7166 2043.05 104.097C2040.48 116.603 2041.21 121.119 2046.37 124.625C2048.59 126.129 2051.86 126.439 2068.54 126.727C2095.33 127.189 2096 126.874 2100.89 111.341C2106.51 93.5146 2117.03 84.1886 2134.38 81.6606C2154.23 78.7666 2172.2 87.6246 2178.58 103.448C2180.62 108.516 2180.97 111.078 2180.97 120.889C2180.97 131.951 2180.84 132.63 2177.67 138.705C2173.65 146.416 2165.38 154.815 2151.47 165.319C2135.02 177.745 2128.64 183.739 2123.36 191.743C2116.12 202.728 2113.34 212.328 2112.72 228.449C2112.19 242.43 2113.14 246.571 2117.41 248.859C2119.87 250.171 2157.43 250.234 2160.86 248.932C2164.21 247.658 2166.13 243.675 2166.9 236.388C2168.92 217.487 2175.06 208.153 2195.18 193.411C2230.15 167.785 2242.47 147.961 2242.47 117.323C2242.47 102.054 2240.61 93.1806 2234.88 81.2096C2218.45 46.8296 2176.49 27.8786 2128.11 32.9836ZM164.34 106.9C141.453 110.508 129.638 122.687 128.66 143.68C128.301 151.407 128.604 154.101 130.461 159.68C134.54 171.933 149.587 199.612 159.171 212.494C161.261 215.302 164.946 220.252 167.36 223.494C169.775 226.736 176.168 233.705 181.567 238.98C195.661 252.75 205.871 257.506 226.457 259.888C231.139 260.43 243.07 261.805 252.97 262.943C279.975 266.048 292.219 268.091 334.47 276.54C407.287 291.101 480.088 315.292 545.829 346.773C554.002 350.687 560.894 353.889 561.145 353.889C562.016 353.889 598.007 372.118 606.47 376.845C659.976 406.733 675.377 416.24 716.864 444.989C726.705 451.809 738.045 459.651 742.064 462.415C746.083 465.18 751.644 469.561 754.421 472.15C758.843 476.274 759.47 477.349 759.47 480.817C759.47 483.774 758.908 485.169 757.247 486.332C752.894 489.382 752.777 489.337 724.47 473.761C680.853 449.761 643.014 430.636 608.97 415.383C538.041 383.604 516.502 375.344 445.97 352.873C416.777 343.573 357.384 329.32 329.47 324.917C326.445 324.44 319.92 323.314 314.97 322.415C241.232 309.023 143.934 305.212 59.4695 312.406C37.8555 314.247 34.3835 314.701 27.4695 316.591C16.3585 319.627 7.53753 327.13 2.72853 337.635C-0.983467 345.742 -0.901473 358.944 2.93453 370.889C10.9455 395.832 38.5965 432.48 70.3035 460.177C80.5555 469.133 96.6955 481.603 102.97 485.415C104.62 486.417 108.323 488.752 111.2 490.603C121.996 497.552 141.924 506.725 151.97 509.371C176.954 515.952 183.687 515.419 245.497 501.975C255.687 499.758 267.23 497.49 271.149 496.935C275.067 496.379 282.48 495.248 287.622 494.421C334.723 486.846 404.113 484.177 455.47 487.966C532.497 493.647 625.509 512.894 702.991 539.183C723.138 546.019 726.21 548.131 725.044 554.347C724.558 556.938 723.555 558.311 721.293 559.48C717.567 561.408 718.118 561.478 680.47 554.255C609.494 540.638 569.021 535.411 499.47 530.876C436.878 526.794 340.993 534.369 268.97 549.085C224.361 558.199 218.982 560.004 215.377 567.071C211.903 573.881 213.106 580.647 218.731 585.937C225.698 592.489 265.459 616.725 287.674 627.961C346.357 657.642 420.223 676 470.97 673.514C491.784 672.495 500.36 670.248 528.47 658.45C579.34 637.1 633.727 624.363 703.97 617.35C714.541 616.294 726.701 615.86 739.809 616.071L759.647 616.389L762.044 619.179C764.225 621.717 764.327 622.252 763.164 625.103C761.193 629.934 757.445 632.07 748.26 633.598C743.701 634.357 734.795 635.826 728.47 636.864C700.061 641.525 676.921 646.397 654.47 652.445C649.245 653.852 641.384 655.895 637.001 656.984C628.31 659.143 592.403 671.036 585.97 673.886C583.77 674.86 576.422 678.027 569.641 680.923C494.053 713.205 435.629 762.259 391.627 830.389C382.1 845.14 380.995 848.766 384.366 854.221C388.381 860.717 396.329 862.13 407.97 858.418C410.17 857.716 418.045 855.467 425.47 853.419C445.488 847.896 485.949 835.361 500.35 830.219C507.291 827.741 514.13 825.356 515.547 824.92C518.772 823.929 547.336 811.733 566.191 803.299C615.227 781.361 666.571 750.762 724.47 708.97C740.276 697.562 744.728 694.889 747.929 694.889C752.058 694.889 756.47 698.259 756.47 701.414C756.47 706.199 737.242 724.857 705.484 750.889C701.793 753.914 695.893 758.827 692.372 761.807C673.075 778.139 624.583 811.703 596.47 828.185C566.934 845.502 545.427 856.41 511.97 871.045C507.02 873.21 501.62 875.602 499.97 876.361C493.747 879.222 459.424 891.856 445.97 896.238C434.365 900.017 419.462 904.467 389.47 913.107C374.013 917.559 353.834 928.81 340.537 940.389C310.161 966.84 285.189 1006.9 262.003 1066.39C256.807 1079.72 256.63 1080.27 250.918 1100.69C243.322 1127.85 242.137 1134.1 242.049 1147.49C241.969 1159.75 242.035 1160.06 246.685 1169.42C252.263 1180.64 264.294 1187.85 277.47 1187.87C285.868 1187.88 288.715 1186.71 328.97 1166.69C361.919 1150.29 369.601 1146.17 399.97 1128.59C440.351 1105.22 479.696 1079.53 507.801 1058.19C565.282 1014.54 597.736 986.612 639.473 944.889C665.975 918.395 679.812 903.537 707.97 871.334C715.534 862.683 733.397 841.212 739.97 832.87C761.086 806.07 778.63 782.724 792.183 763.389C802.819 748.215 804.644 746.134 808.075 745.273C811.214 744.485 815.364 746.565 816.758 749.625C818.388 753.202 816.278 758.331 807.344 772.496C802.873 779.587 793.91 794.164 787.427 804.889C772.602 829.417 753.216 858.542 740.02 876.113C737.242 879.811 733.845 884.435 732.47 886.389C724.597 897.574 704.389 923.649 692.559 937.889C630.856 1012.16 570.346 1070.44 501.97 1121.45C481.085 1137.03 446.181 1161.57 435.304 1168.32C431.821 1170.48 424.695 1175.03 419.47 1178.42C414.245 1181.82 408.574 1185.31 406.868 1186.19C403.267 1188.04 397.952 1193.8 396.963 1196.91C395.993 1199.97 397.183 1205.25 399.507 1208.21C400.598 1209.6 403.424 1211.47 405.785 1212.37C409.74 1213.88 411.217 1213.89 424.524 1212.44C432.469 1211.58 441.22 1210.44 443.97 1209.91C446.72 1209.38 453.47 1208.23 458.97 1207.34C503.008 1200.27 545.226 1188.35 579.97 1173.17C612.588 1158.92 631.907 1148.35 658.483 1130.24C668.473 1123.43 671.35 1121.25 688.566 1107.46C692.638 1104.19 702.911 1094.97 711.394 1086.96C752.28 1048.34 789.099 1000.07 825.475 937.389C833.191 924.093 855.141 879.025 863.951 858.389C868.178 848.489 872.436 838.589 873.413 836.389C874.391 834.189 876.673 828.564 878.486 823.889C890.389 793.182 898.895 776.494 910.523 761.03C939.132 722.985 965.217 709.208 999.903 713.823C1011.18 715.324 1020.51 718.489 1037.45 726.555C1051.15 733.082 1053.3 734.312 1070.97 745.773C1089.42 757.739 1090.99 759.532 1085.53 762.356C1079.87 765.287 1057.14 770.171 1031.97 773.867C1001.15 778.393 985.617 784.596 971.345 798.076C950.822 817.459 942.063 843.222 940.806 887.889C939.751 925.427 943.934 959.119 951.485 973.889C955.831 982.392 966.133 992.12 974.585 995.704C986.226 1000.64 1001.82 1001.43 1016.21 997.828C1037.73 992.438 1066.67 977.781 1098.19 956.32C1138.08 929.154 1162.31 907.159 1198.11 865.639C1199.42 864.127 1200.9 862.889 1201.41 862.889C1201.93 862.889 1210.13 869.091 1219.66 876.671C1255.24 904.998 1284.59 924.803 1317.47 942.671C1361.37 966.527 1406.3 985.812 1440.47 995.458C1459.68 1000.88 1460.29 1001.6 1448.22 1004.71C1425.08 1010.66 1410.43 1012.18 1377.91 1012C1356.53 1011.88 1351.45 1012.14 1343.3 1013.82C1324.98 1017.59 1311.1 1024.74 1298.55 1036.89C1286.66 1048.38 1281.13 1056.61 1274.06 1073.32C1263.79 1097.59 1257.92 1126.1 1256.86 1156.89C1256.32 1172.39 1256.49 1175.53 1258.37 1184.39C1261.46 1198.94 1265.95 1207.68 1274.76 1216.31C1282.46 1223.86 1287.42 1226.81 1296.89 1229.47C1305.15 1231.79 1321.73 1230.97 1334.51 1227.62C1364.84 1219.65 1418.05 1194.19 1446.99 1173.78C1453.95 1168.87 1473.39 1154.34 1478.65 1150.11C1494.62 1137.27 1522.05 1110.17 1532.7 1096.7C1550.04 1074.77 1562.67 1055.28 1572.24 1035.66C1577.13 1025.64 1579.55 1021.72 1581.1 1021.3C1582.27 1020.99 1588.44 1021.25 1594.82 1021.87C1601.19 1022.5 1617.67 1023.06 1631.44 1023.11C1661.71 1023.22 1660.47 1023.7 1660.47 1011.82C1660.47 1003.5 1662.35 992.104 1664.9 985.013C1666.79 979.745 1666.92 975.922 1665.22 975.798C1664.53 975.748 1646.64 975.599 1625.47 975.467C1583.47 975.206 1569.95 974.202 1535.47 968.788C1491.41 961.869 1462.34 954.157 1418.97 937.882C1350.98 912.367 1283.21 871.342 1221.47 818.325C1216.24 813.839 1201.39 799.509 1188.47 786.481C1155.28 753.029 1133 732.615 1113.92 718.193C1073.72 687.798 1033.43 670.146 996.659 666.822C972.761 664.661 952.966 668.27 934.47 678.159C930.345 680.365 926.52 682.496 925.97 682.897C925.42 683.297 922.322 685.081 919.085 686.862C913.773 689.784 912.548 690.063 906.508 689.721C901.036 689.412 898.776 688.712 894.106 685.882C878.05 676.151 860.306 651.377 851.497 626.389C846.034 610.893 844.375 601.191 843.797 581.389C843.337 565.608 843.536 562.094 845.409 552.889C848.193 539.204 849.857 534.176 855.008 523.889C859.762 514.394 864.989 508.533 870.252 506.796C874.78 505.302 884.809 506.321 888.88 508.689C893.447 511.346 893.381 514.637 888.568 524.307C880.327 540.865 877.203 554.693 879.352 565.099C880.988 573.019 883.539 577.958 888.612 583.031C895.213 589.632 900.155 591.335 912.47 591.254C920.816 591.199 925.329 590.562 934.47 588.149C959.808 581.459 984.169 574.69 1007.47 567.866C1086.53 544.711 1113.16 537.37 1153.97 527.488C1185.17 519.932 1199.72 517.147 1232.97 512.368C1288.59 504.373 1319.52 504.243 1361.43 511.827C1385.16 516.122 1396.68 520.21 1431.97 536.867C1440.72 540.996 1449.6 544.506 1463.97 549.512C1475.5 553.531 1502.04 559.849 1516.97 562.131C1530.75 564.237 1533.46 564.276 1688.2 564.615L1845.43 564.959L1846.26 568.153C1846.92 570.692 1846.21 574.074 1842.8 584.634C1832.11 617.779 1827.54 648.476 1829.44 674.289C1832.77 719.351 1842.76 752.776 1864.6 791.889C1867.6 797.277 1877.62 811.739 1882.95 818.389C1897.67 836.747 1917.93 855.895 1937.2 869.643C1953.92 881.578 1974.51 892.185 1991.97 897.861C2000.25 900.551 2001.42 901.403 1999.43 903.258C1997.28 905.253 1978.47 912.808 1957.97 919.909C1948.07 923.339 1938.06 926.823 1935.72 927.652C1932.13 928.927 1931.34 929.716 1930.59 932.774C1929.33 937.923 1926.1 976.491 1926.78 978.259C1927.27 979.521 1928.57 979.397 1935.82 977.404C1944.35 975.056 1948.42 973.699 1971.72 965.442C1982.87 961.491 2000.78 954.434 2009.97 950.37C2019.8 946.023 2030.88 941.319 2036.97 938.899C2057.37 930.796 2093.93 913.21 2126.97 895.608C2153.88 881.272 2186.8 862.131 2200.47 852.881C2203.49 850.833 2213.62 844.24 2222.97 838.228C2260.08 814.371 2303.32 780.367 2319.17 762.574C2326.2 754.682 2328.81 749.023 2328.9 741.452C2329.05 728.359 2319.98 717.599 2305.99 714.279C2296.46 712.017 2269.69 712.028 2256.04 714.298C2244.68 716.188 2224.24 721.196 2218.48 723.5C2211.64 726.238 2210.73 725.071 2215.26 719.389C2223.84 708.645 2245.63 692.21 2261.07 684.842C2279.66 675.966 2293.72 672.374 2317.94 670.309C2339.49 668.471 2343.42 666.719 2348.59 656.642C2354.22 645.647 2351.18 634.445 2333.98 602.889C2314.52 567.195 2283.49 530.227 2248.47 501.01C2241.04 494.816 2232.94 488.061 2230.47 486C2200.54 461.069 2142.66 425.559 2085.47 397.036C2069.24 388.944 2052.21 380.611 2047.61 378.518C2035.11 372.822 1983.92 352.401 1968.16 346.822C1960.56 344.133 1954.04 341.741 1953.66 341.508C1951.41 340.122 1891.43 322.241 1869.47 316.408C1819.1 303.032 1737.09 289.743 1678.47 285.46C1633.49 282.174 1610.89 281.567 1579.2 282.798C1496.01 286.027 1430.5 294.168 1364.97 309.421C1309.28 322.385 1266.52 335.158 1219.47 352.883C1214.79 354.645 1206.92 357.576 1201.97 359.398C1191.83 363.129 1172.24 371.192 1162.46 375.653C1158.89 377.283 1152.59 380.089 1148.47 381.889C1129.86 390.008 1099.57 404.934 1078.82 416.205C1062.19 425.237 1041.16 436.953 1039.97 437.842C1039.42 438.253 1034.24 441.088 1028.47 444.141C1001.65 458.318 993.681 461.644 974.47 466.668C967.09 468.598 961.623 469.256 949.97 469.614C936.359 470.033 933.872 469.829 923.109 467.407C908.655 464.155 896.394 459.574 884.322 452.914C879.312 450.15 875.052 447.889 874.857 447.889C874.662 447.889 866.734 442.735 857.237 436.437C840.671 425.45 814.244 405.697 800.403 393.959C784.102 380.133 751.255 351.008 747.97 347.467C745.214 344.496 698.403 302.292 692.373 297.342C690.395 295.718 684.32 290.525 678.873 285.803C666.012 274.653 635.055 250.471 615.22 236.08C612.332 233.985 607.495 230.458 604.47 228.241C599.009 224.24 576.248 209.659 566.209 203.73C538.527 187.384 517.594 176.317 498.005 167.674C422.183 134.219 344.134 116.732 230.97 107.843C212.244 106.372 171.359 105.793 164.34 106.9ZM2128.51 281.925C2125.5 283.005 2122.89 283.889 2122.7 283.889C2121.16 283.889 2110.74 295.386 2108.79 299.247C2105.72 305.305 2104.46 315.824 2106 322.52C2109.09 335.95 2119.92 346.806 2133.33 349.903C2143.33 352.214 2153.04 349.549 2163.22 341.695C2169.64 336.74 2172.91 331.488 2175.11 322.565C2177.04 314.75 2176.09 307.763 2171.96 299.3C2169.28 293.795 2162.69 286.623 2158.12 284.227C2149.27 279.59 2137.54 278.678 2128.51 281.925ZM2020.97 418.653C2054.4 432.726 2120.03 467.293 2147.47 485.283C2149.39 486.546 2157.04 491.541 2164.47 496.385C2180.46 506.815 2204.05 524.492 2215.97 534.975C2242.01 557.872 2260.51 577.218 2272.32 593.889C2286.57 614.014 2293.47 625.725 2293.47 629.79C2293.47 631.323 2292.22 632.089 2287.72 633.326C2266.53 639.145 2253.88 644.56 2234.97 655.895C2212.04 669.643 2189.76 691.886 2171.64 719.14C2147.75 755.05 2145.01 764.156 2154.95 774.532C2158.89 778.642 2159.44 778.889 2164.63 778.889C2169.52 778.889 2171.92 777.992 2186.05 770.893C2194.81 766.496 2205.34 761.522 2209.47 759.841C2213.59 758.159 2217.87 756.361 2218.97 755.846C2220.07 755.33 2227.4 753.554 2235.25 751.899C2249.11 748.98 2264.71 747.855 2265.85 749.693C2267.39 752.182 2230.23 780.117 2187.47 808.614C2176.74 815.763 2165.49 823.053 2162.47 824.816C2159.44 826.579 2154.79 829.352 2152.13 830.979C2135.31 841.258 2108.41 854.589 2096.97 858.32C2084.41 862.414 2076.93 863.199 2056.47 862.568C2037.1 861.971 2029.09 860.672 2012.22 855.395C1979.1 845.034 1952.87 827.021 1927 796.889C1913.22 780.83 1906.93 771.125 1897.17 750.889C1885.65 727.01 1880.98 710.225 1877.42 679.912C1874.75 657.19 1880.52 613.197 1888.51 595.389C1889 594.289 1890.94 589.339 1892.81 584.389C1911.27 535.607 1935.56 489.051 1959.19 457.19C1972.59 439.118 1986.2 423.693 1994.94 416.671C1999.45 413.049 2000.34 412.721 2004.44 413.14C2006.93 413.394 2014.37 415.875 2020.97 418.653ZM2076.74 513.964C2056.87 515.934 2033.39 527.672 2019.4 542.621C2006.58 556.328 1998.4 571.869 1994.84 589.291C1992.62 600.176 1993.39 622.415 1996.35 632.591C2000.88 648.162 2008.99 661.362 2021.12 672.94C2031.86 683.186 2041.93 689.674 2055.97 695.386C2063.97 698.641 2078.97 701.871 2086.13 701.88C2092.9 701.889 2093.43 701.723 2095.88 698.812C2098.57 695.619 2099.23 691.186 2097.51 687.965C2095.74 684.664 2091.73 682.977 2083.07 681.901C2073.83 680.754 2060.3 676.427 2052.68 672.183C2034.52 662.078 2022.65 647.558 2016.88 628.389C2014.58 620.733 2014.16 617.447 2014.07 606.389C2013.94 589.086 2016.72 579.723 2026.02 566.174C2039.25 546.896 2062.83 533.889 2084.54 533.889C2118.1 533.889 2144.18 553.149 2150.12 582.318C2155.44 608.486 2138.43 634.219 2110.97 641.532C2105 643.123 2091.56 643.289 2085.97 641.842C2078.95 640.025 2069.54 634.806 2064.89 630.151C2058.19 623.453 2055.24 616.956 2054.68 607.709C2054.05 597.162 2054.86 593.942 2059.83 587.185C2069.76 573.7 2088.33 569.99 2102.24 578.712C2107.56 582.048 2110.97 588.418 2110.15 593.494C2108.26 605.142 2098.32 608.786 2093.29 599.676C2089.22 592.293 2083.27 591.002 2077.92 596.344C2072.7 601.565 2073.93 609.743 2080.95 616.502C2088.75 624.014 2102.08 626.17 2111.97 621.518C2124.38 615.681 2132.73 598.912 2129.54 586.236C2124.77 567.299 2110.68 555.573 2091.05 554.204C2073.85 553.005 2060.55 557.571 2049.97 568.311C2025.35 593.293 2030.59 631.865 2061.34 652.042C2065.39 654.701 2072.37 658.086 2076.84 659.564C2083.91 661.901 2086.66 662.259 2097.97 662.318C2112.76 662.396 2117.57 661.3 2131.47 654.691C2138.65 651.279 2141.46 649.15 2149.52 641.019C2160.03 630.424 2164.58 622.997 2168.57 609.889C2173.23 594.566 2170.88 574.699 2162.33 557.159C2148.63 529.06 2111.82 510.485 2076.74 513.964ZM1133.9 565.779C1123.69 570.418 1117.34 579.796 1117.35 590.229C1117.36 613.924 1144.78 624.963 1161.31 607.929C1173.59 595.281 1169.33 574.024 1152.97 566.276C1146.86 563.384 1139.6 563.195 1133.9 565.779ZM1223.97 568.288C1217.22 570.421 1213.77 572.671 1209.34 577.813C1203.63 584.441 1201.59 589.815 1201.54 598.389C1201.48 607.321 1204.45 614.051 1211.48 620.898C1222.81 631.935 1241.12 631.708 1252.75 620.387C1275.28 598.455 1253.46 558.961 1223.97 568.288ZM1043.01 586.606C1040.28 588.137 1036.73 591.27 1035.12 593.569C1025.24 607.672 1037.34 627.604 1054.54 625.567C1065.75 624.239 1073.47 615.348 1073.47 603.759C1073.47 588.618 1056.48 579.05 1043.01 586.606ZM973 608.171C962.726 613.99 960.121 627.158 967.479 636.084C979.046 650.116 1000.78 640.701 999.256 622.318C998.186 609.418 984.15 601.855 973 608.171ZM1098.8 632.851C1081.14 637.043 1075.21 659.058 1088.68 670.415C1100.81 680.645 1117.99 676.218 1122.87 661.604C1124.78 655.888 1124.83 652.635 1123.07 647.714C1119.26 637.038 1108.62 630.521 1098.8 632.851ZM1166.97 662.276C1161.14 665.037 1156.59 669.572 1153.31 675.889C1151.42 679.529 1150.97 681.947 1150.97 688.545C1150.97 696.426 1151.1 696.898 1154.97 702.511C1157.17 705.707 1160.99 709.687 1163.47 711.355C1167.65 714.176 1168.6 714.389 1176.97 714.389C1184.98 714.389 1186.48 714.087 1190.62 711.652C1199.39 706.502 1204.72 697.415 1204.86 687.389C1204.96 680.131 1202.4 674.305 1196.37 668.02C1188.46 659.789 1176.96 657.543 1166.97 662.276ZM1828.3 836.834C1826.28 837.227 1822.09 839.087 1818.98 840.969C1812.71 844.772 1809.94 848.486 1797.03 870.462C1784.45 891.869 1768.61 909.698 1737.2 937.787C1718.14 954.828 1708.5 966.672 1701.05 982.167C1696.28 992.076 1694.62 999.142 1693.85 1012.87C1692.13 1043.22 1698.79 1062.9 1722.43 1097.37C1734.42 1114.85 1762.02 1141.97 1774.21 1148.26C1779.78 1151.13 1792.25 1153.2 1799.97 1152.53C1822.72 1150.57 1837.79 1139.3 1851.02 1114.36C1861.27 1095.03 1874.05 1061.56 1880.97 1035.89C1890.89 999.14 1897.04 957.407 1898.15 919.313L1898.77 898.237L1895.51 892.116C1893.51 888.37 1890.06 884.086 1886.61 881.069C1877.29 872.926 1862.69 858.064 1856.95 850.87C1846.47 837.728 1839.99 834.557 1828.3 836.834Z" fill="black"/>
</svg>
