<svg width="2365" height="1260" viewBox="0 0 2365 1260" fill="none" xmlns="http://www.w3.org/2000/svg">
<path fill-rule="evenodd" clip-rule="evenodd" d="M1604 0.187611C1580.25 3.33761 1563.86 8.30561 1543.85 18.4236C1539.36 20.6926 1535.38 22.5486 1535 22.5486C1534.62 22.5486 1533.09 23.4176 1531.6 24.4796C1530.11 25.5416 1526.89 27.1916 1524.45 28.1456C1522 29.0996 1518.66 30.8176 1517.02 31.9646C1513.48 34.4396 1510.22 36.1486 1484 49.2666C1465.9 58.3226 1459.28 61.5586 1438.58 71.4716C1435.04 73.1636 1431.76 74.5486 1431.28 74.5486C1430.8 74.5486 1427.17 76.0836 1423.21 77.9596C1419.25 79.8356 1411.73 82.9606 1406.5 84.9036C1397.12 88.3936 1388.99 91.5916 1382.85 94.2056C1381.12 94.9446 1378.96 95.5486 1378.06 95.5486C1377.16 95.5486 1374.66 96.4486 1372.5 97.5486C1370.35 98.6486 1367.85 99.5486 1366.95 99.5486C1366.04 99.5486 1363.89 100.186 1362.16 100.965C1357.56 103.029 1344.06 107.752 1327.5 113.083C1319.53 115.652 1310.75 118.566 1308 119.558C1302.62 121.503 1290.08 125.674 1282 128.209C1279.25 129.072 1275.65 130.354 1274 131.057C1270.35 132.616 1262.06 135.733 1254 138.582C1250.7 139.749 1246.65 141.296 1245 142.02C1243.35 142.744 1239.3 144.341 1236 145.569C1212.12 154.462 1175.46 172.151 1151.5 186.342C1139.52 193.441 1118.37 207.891 1113.9 212.028C1113.3 212.59 1110.61 214.849 1107.93 217.049C1088.9 232.685 1074.4 247.794 1060.5 266.458C1050.9 279.356 1048.29 283.694 1039.14 302.049C1030.56 319.256 1025.25 335.075 1020.82 356.549C1015.71 381.288 1014.58 391.902 1016.53 396.619C1018.09 400.383 1024.83 405.549 1028.19 405.549C1030.63 405.549 1039.43 401.455 1049.92 395.441C1065.72 386.387 1112.89 362.281 1126.5 356.304C1128.43 355.459 1133.38 353.312 1137.5 351.533C1141.63 349.753 1148.15 346.819 1152 345.011C1163.09 339.805 1182.21 332.046 1212.5 320.46C1222.41 316.669 1239.8 310.575 1250.5 307.141C1277.89 298.356 1281.89 297.135 1294.5 293.718C1298.63 292.6 1306.95 290.268 1313 288.535C1319.05 286.801 1326.93 284.767 1330.5 284.013C1334.08 283.259 1339.7 281.941 1343 281.085C1363.46 275.775 1398.33 268.556 1413.5 266.488C1417.08 266.001 1421.01 265.36 1422.23 265.063C1427.95 263.675 1448.06 260.56 1457.51 259.598C1463.28 259.01 1470.7 258.088 1474 257.549C1487.12 255.408 1525.46 252.198 1558.67 250.461C1579.68 249.362 1644.17 249.743 1660.5 251.063C1664.08 251.352 1676.68 252.265 1688.5 253.092C1700.33 253.919 1716.08 255.456 1723.5 256.507C1730.93 257.558 1742.85 259.151 1750 260.045C1757.15 260.94 1770.88 263.036 1780.5 264.702C1790.13 266.368 1799.86 267.527 1802.14 267.277C1807.62 266.672 1811.01 264 1813.08 258.647C1814.97 253.766 1815.01 253.947 1806.55 231.549C1804.79 226.874 1802.67 221.253 1801.85 219.057C1801.02 216.861 1800.01 214.611 1799.6 214.057C1799.19 213.503 1798.04 210.799 1797.04 208.049C1796.05 205.299 1794.42 201.213 1793.42 198.968C1792.42 196.724 1790.74 192.674 1789.67 189.968C1783.79 175.08 1774.74 157.281 1758.57 128.85C1753.4 119.766 1737.76 95.5106 1736.12 94.0486C1735.51 93.4986 1733.82 91.2486 1732.37 89.0486C1730.93 86.8486 1728.55 83.6986 1727.09 82.0486C1725.63 80.3986 1722.55 76.5736 1720.25 73.5486C1706.37 55.3046 1683.03 31.8866 1668.79 21.9046C1651.52 9.80361 1634.54 2.69861 1619 1.07161C1615.7 0.725613 1611.65 0.295611 1610 0.116611C1608.35 -0.0633886 1605.65 -0.0313895 1604 0.187611ZM164.005 107.552C147.36 109.956 135.786 118.241 130.48 131.55C128.555 136.379 128.352 138.327 128.81 147.549C129.273 156.87 129.776 159.116 133.291 167.549C135.469 172.774 138.771 179.94 140.628 183.474L144.005 189.898L171.595 208.474C216.496 238.704 219.435 240.763 223.948 245.15C226.322 247.457 229.411 251.849 230.813 254.91C232.613 258.842 234.042 260.623 235.683 260.98C241.449 262.235 255.872 264.473 265.005 265.531C291.898 268.645 339.392 277.74 370.005 285.64C381.005 288.478 391.805 291.157 394.005 291.594C404.2 293.616 458.759 311.168 470.005 316.043C473.391 317.511 484.266 321.702 492.505 324.714C501.25 327.911 510.522 331.704 516.972 334.722C520.367 336.31 523.315 337.139 523.812 336.642C524.308 336.146 523.341 330.872 521.571 324.41C519.859 318.161 517.767 310.349 516.924 307.049C516.08 303.749 514.729 298.799 513.921 296.049C510.193 283.349 503.305 255.559 502.791 251.144L502.221 246.238L506.951 246.887C509.553 247.243 522.329 247.991 535.343 248.548C548.357 249.106 561.93 249.763 565.505 250.008C569.08 250.254 579.022 250.763 587.598 251.139L603.191 251.823L603.848 245.539C605.513 229.616 604.579 227.043 595.347 222.116C592.409 220.548 589.105 218.485 588.005 217.532C586.418 216.156 571.873 207.186 561.279 201.049C560.329 200.499 554.029 196.846 547.279 192.932C536.142 186.473 508.843 172.549 507.319 172.549C506.975 172.549 502.039 170.359 496.349 167.682C490.66 165.005 481.505 161.124 476.005 159.057C470.505 156.991 463.53 154.257 460.505 152.981C446.721 147.17 406.477 135.456 378.505 129.113C334.053 119.033 287.006 112.88 213.505 107.536C198.424 106.439 171.655 106.448 164.005 107.552ZM39.3939 170.23C36.6439 176.542 29.5109 196.724 29.5079 198.2C29.5039 199.782 32.6249 201.46 58.7899 213.943C71.3209 219.921 81.8699 224.517 82.2319 224.155C83.2269 223.161 82.1209 218.79 72.3809 185.219C70.4009 178.396 70.3939 178.388 64.7019 175.884C61.5689 174.505 56.0799 171.901 52.5049 170.096C41.7749 164.679 41.8119 164.679 39.3939 170.23ZM624.907 183.746C625.564 187.941 640.287 240.664 641 241.377C641.197 241.574 647.804 242.338 655.682 243.074C663.56 243.81 673.268 244.733 677.255 245.124C683.635 245.751 684.505 245.637 684.505 244.172C684.505 243.257 680.905 234.822 676.505 225.426C672.105 216.031 668.505 208.174 668.505 207.968C668.505 206.174 661.098 192.404 659.748 191.689C658.789 191.181 652.43 188.899 645.615 186.618C638.801 184.336 632.501 182.1 631.615 181.648C630.73 181.196 628.706 180.514 627.119 180.134L624.232 179.442L624.907 183.746ZM130.755 256.211C128.901 256.959 129.171 258.336 132.881 267.087C139.404 282.471 140.536 284.549 142.391 284.549C143.376 284.549 147.869 282.186 152.375 279.299L160.567 274.049L159.913 270.049C159.553 267.849 158.468 264.024 157.5 261.549C155.939 257.554 155.308 256.971 151.873 256.357C147.431 255.562 132.618 255.46 130.755 256.211ZM1565.48 282.884C1565.19 283.189 1556.19 283.925 1545.48 284.519C1518.07 286.039 1486.93 288.946 1465 292.03C1439.18 295.662 1393.06 303.445 1382 306.034C1359.11 311.397 1331.01 318.302 1320 321.268C1312.85 323.195 1305.65 325.106 1304 325.514C1297.96 327.008 1275.86 333.702 1271 335.51C1268.25 336.534 1262.18 338.588 1257.5 340.075C1245.48 343.9 1244.51 344.625 1245.51 349.052C1246.15 351.925 1250.29 356.6 1266.41 372.651C1280.38 386.568 1286.5 393.337 1286.5 394.867C1286.5 396.077 1282.95 404.263 1278.61 413.058C1271.29 427.871 1270.83 429.168 1272.36 430.664C1273.26 431.552 1283.23 436.218 1294.5 441.031C1305.78 445.845 1315.34 450.293 1315.74 450.916C1316.14 451.539 1316.48 459.604 1316.49 468.839C1316.51 488.441 1316.59 488.699 1326.86 500.709C1333.89 508.931 1333.41 508.697 1347 510.565C1377.39 514.742 1399.11 521.479 1424.7 534.672C1431.66 538.259 1456.15 548.084 1463 550.04C1465.75 550.824 1473.63 553.075 1480.5 555.041C1497.49 559.9 1505.34 561.359 1523.5 563.028C1539.44 564.493 1562.02 565.346 1562.89 564.516C1584.55 543.774 1628.5 498.801 1628.5 497.379C1628.5 495.659 1623.29 482.874 1620 476.549C1618.88 474.391 1615.94 467.908 1607.56 449.187C1606.54 446.911 1604.22 441.734 1602.4 437.683L1599.1 430.318L1602.05 428.183C1605.44 425.721 1617.92 415.017 1624.5 408.921C1626.98 406.629 1631.03 403.099 1633.5 401.076C1635.98 399.054 1638.47 396.802 1639.04 396.071C1640.75 393.893 1648.62 387.549 1649.62 387.549C1650.7 387.549 1647.42 394.291 1643.54 400.049C1623.01 430.533 1623.04 430.478 1624.12 433.322C1624.69 434.822 1627.83 440.258 1631.08 445.403C1634.34 450.548 1639.14 458.198 1641.76 462.403C1644.37 466.608 1649.17 474.099 1652.43 479.049C1664.59 497.542 1668.88 505.6 1667.9 508.151C1667.14 510.153 1649.32 531.187 1632 550.533C1624.14 559.316 1620.5 563.802 1620.5 564.71C1620.5 565.172 1670.85 565.549 1732.38 565.549C1830.31 565.549 1844.41 565.735 1845.5 567.04C1846.92 568.756 1846.14 575.958 1844 580.937C1843.26 582.649 1841.71 587.424 1840.55 591.549C1839.39 595.674 1837.81 601.074 1837.05 603.549C1835.13 609.729 1831.85 628.788 1830.43 642.049C1827.89 665.689 1830.71 699.623 1837.45 726.549C1840.38 738.263 1845.78 754.026 1849.96 763.049C1860.95 786.797 1870 802.106 1883.32 819.468C1889.41 827.42 1911.84 850.432 1922.5 859.688C1938.19 873.296 1968.58 890.619 1989.5 897.876C1995.04 899.795 1999.12 901.778 1999.28 902.626C1999.67 904.669 1970.06 917.021 1944.5 925.471C1937.63 927.745 1931.53 929.93 1930.95 930.327C1930.37 930.724 1929.07 940.049 1928.05 951.049C1927.03 962.049 1925.99 973.187 1925.75 975.799C1925.2 981.779 1925.34 981.787 1940.51 976.664C1964.21 968.657 1966.08 967.988 1995.5 957.045C1999.63 955.51 2006.22 952.746 2010.16 950.902C2014.09 949.058 2017.68 947.549 2018.12 947.549C2018.99 947.549 2037.93 939.811 2046 936.155C2048.75 934.909 2055.28 931.945 2060.5 929.569C2110.08 907.018 2171.98 871.203 2204.67 846.156C2208.33 843.347 2215.8 837.774 2221.27 833.77C2226.73 829.767 2234.34 823.692 2238.17 820.27C2242 816.849 2247.98 811.574 2251.46 808.549C2260.81 800.407 2285.49 775.136 2301.58 757.206C2309.05 748.893 2320.41 744.549 2334.69 744.549C2346.43 744.549 2354.69 738.988 2358.52 728.495C2361.14 721.326 2361.02 716.739 2358.03 710.209C2354.82 703.171 2350.25 699.294 2341.94 696.527C2336.19 694.615 2333.94 694.375 2326.86 694.918C2309.56 696.248 2289.77 702.686 2279.91 710.193C2276.69 712.647 2273.5 713.301 2273.5 711.509C2273.5 709.695 2277.6 702.262 2282.08 695.934C2287.52 688.251 2302.76 673.899 2312.19 667.569C2318.93 663.043 2338.54 654.56 2342.3 654.54C2344.52 654.527 2353.24 649.424 2356.76 646.083C2366.81 636.517 2366.44 617.585 2356.03 608.79C2351.37 604.863 2345.51 602.595 2339.94 602.571C2334.13 602.546 2331.8 600.662 2326.87 592.011C2325.3 589.241 2322.76 585.191 2321.23 583.011C2319.7 580.832 2316.78 576.507 2314.72 573.401C2295.23 543.882 2253.14 501.836 2218.28 477.049C2215.95 475.399 2211.26 471.953 2207.85 469.392C2201.19 464.391 2175.44 447.269 2172 445.549C2171.45 445.274 2166.73 442.436 2161.5 439.243C2128.08 418.816 2118.54 413.566 2083.5 396.346C2058.2 383.908 2047.46 378.949 2032 372.572C2005 361.427 1979.95 351.481 1972 348.749C1967.05 347.046 1959.18 344.203 1954.5 342.431C1940.53 337.135 1903.24 326.218 1867.5 316.96C1826.03 306.215 1807.18 302.064 1783.31 298.418L1768.62 296.173L1760.14 302.611C1755.47 306.152 1747.13 312.16 1741.6 315.963C1736.07 319.766 1730.62 323.857 1729.5 325.054L1727.46 327.231L1733.33 339.64C1736.56 346.465 1741.19 355.649 1743.62 360.049C1746.05 364.449 1749.57 371.424 1751.44 375.549C1753.32 379.674 1757.93 389.498 1761.68 397.38C1765.43 405.262 1768.5 411.905 1768.5 412.142C1768.5 412.379 1770.03 415.83 1771.9 419.811C1782.29 441.953 1784.37 447.573 1782.17 447.521C1781.53 447.506 1779.98 446.044 1778.72 444.271C1777.46 442.499 1770.49 433.095 1763.22 423.373C1755.95 413.651 1747.75 402.54 1745 398.681C1739.92 391.544 1737.36 389.628 1735.21 391.336C1734.55 391.86 1728.6 394.416 1722 397.016C1715.4 399.616 1708.67 402.391 1707.03 403.181C1705.39 403.972 1700.22 406.209 1695.53 408.152C1690.84 410.095 1686.22 412.104 1685.27 412.617C1684.31 413.129 1683.03 413.549 1682.41 413.549C1681.8 413.549 1679.19 414.608 1676.61 415.902C1674.03 417.196 1670.14 418.827 1667.97 419.526C1665.79 420.225 1661.61 421.874 1658.69 423.19C1653.89 425.351 1650.9 425.549 1651.7 423.654C1652.07 422.797 1666.43 410.045 1679.43 399.031C1694.95 385.883 1707.54 374.422 1707.23 373.714C1707.07 373.348 1700.43 359.852 1692.47 343.723L1678 314.397L1681.14 311.723C1682.87 310.252 1686.59 307.474 1689.42 305.549C1697.35 300.136 1709.97 290.473 1710.31 289.549C1710.48 289.092 1709.8 288.482 1708.81 288.192C1706.72 287.584 1684.95 285.951 1659 284.457C1638.31 283.266 1566.27 282.053 1565.48 282.884ZM678.927 297.706L673.005 303.768L656.505 303.164C640.692 302.586 602.383 299.625 584.505 297.601C566.077 295.514 556.848 295.21 556.296 296.673C555.843 297.871 558.86 311.097 566.451 341.19C567.581 345.667 568.505 350.302 568.505 351.49C568.505 355.812 571.37 359.276 577.718 362.628C596.79 372.697 602.432 375.651 606.505 377.696C608.98 378.939 613.705 381.494 617.005 383.375C620.305 385.257 624.805 387.823 627.005 389.078C653.764 404.345 680.247 420.769 702.24 435.736C730.124 454.711 736.381 459.105 745.784 466.313C756.591 474.595 759.505 477.723 759.505 481.038C759.505 483.655 755.283 488.549 753.024 488.549C751.115 488.549 744.001 484.999 726.34 475.231C719.006 471.175 708.955 465.69 704.005 463.042C699.055 460.394 691.855 456.453 688.005 454.286C681.166 450.435 626.422 423.254 615.505 418.288C612.48 416.912 606.18 413.985 601.505 411.783C588.199 405.515 583.347 403.528 582.549 404.022C581.574 404.624 582.671 410.459 586.502 425.049C588.235 431.649 590.595 441.5 591.747 446.94C593.649 455.921 593.695 456.937 592.254 457.99C590.585 459.211 516.707 461.62 482.377 461.573C469.216 461.555 464.48 461.875 463.684 462.834C462.563 464.184 461.838 486.661 462.862 488.317C463.185 488.841 467.4 489.582 472.228 489.964C483.661 490.868 513.339 494.306 521.005 495.614C524.305 496.177 532.18 497.495 538.505 498.543C553.757 501.069 564.092 503.016 575.005 505.42C579.955 506.51 589.19 508.529 595.527 509.905C624.547 516.21 667.678 528.23 699.005 538.744C715.429 544.256 718.88 545.754 722.255 548.84C726.063 552.322 724.429 560.028 719.628 561.233C717.321 561.812 685.867 556.524 671.005 553.059C667.705 552.289 657.13 550.302 647.505 548.642C637.88 546.982 624.83 544.722 618.505 543.618C612.18 542.515 601.079 540.923 593.837 540.08C586.594 539.238 580.069 538.332 579.337 538.066C575.671 536.737 506.869 531.691 481.911 530.921L459.817 530.239L459.209 533.279C458.874 534.952 458.091 546.159 457.468 558.184C456.846 570.21 455.944 581.038 455.466 582.246C454.302 585.185 450.25 587.718 445.169 588.683C442.879 589.118 430.43 592.209 417.505 595.552C404.58 598.895 387.255 603.358 379.005 605.47C370.755 607.582 362.576 609.926 360.829 610.679C357.872 611.954 353.794 616.689 335.658 639.908C332.376 644.109 330.668 647.112 331.236 647.68C333.295 649.739 363.56 659.417 373.505 661.197C374.88 661.443 378.255 662.279 381.005 663.054C409.82 671.177 430.126 673.931 461.505 673.973C489.562 674.01 495.733 672.855 517.78 663.435C525.356 660.198 532.031 657.549 532.612 657.549C533.194 657.549 536.696 656.221 540.395 654.597C557.336 647.162 600.285 634.607 626.005 629.572C671.711 620.623 704.817 616.998 740.505 617.033C754.403 617.046 757.518 617.329 760.255 618.825C764.126 620.94 764.63 624.849 761.539 628.779C758.961 632.056 755.95 633.143 744.505 634.932C707.255 640.751 688.656 644.542 653.505 653.477C602.456 666.455 555.147 685.654 516.193 709.2C508.597 713.792 502.038 717.549 501.618 717.549C501.197 717.549 499.831 718.638 498.581 719.969C497.33 721.299 495.002 722.929 493.406 723.59C488.519 725.614 490.019 727.122 499.255 729.473C504.068 730.697 517.455 734.361 529.005 737.614C540.555 740.867 552.48 744.177 555.505 744.97C579.227 751.186 582.135 752.136 582.801 753.891C583.311 755.233 582.039 760.487 576.348 780.549C571.024 799.315 570.522 801.549 571.632 801.549C572.136 801.549 576.408 799.749 581.126 797.549C585.844 795.349 589.829 793.549 589.983 793.549C590.239 793.549 600.952 787.672 609.618 782.778C615.288 779.575 616.895 778.736 618.505 778.136C620 777.58 637.556 767.339 656.188 756.156C673.962 745.488 709.964 720.971 734.872 702.575C740.848 698.161 746.711 694.549 747.899 694.549C750.975 694.549 756.505 699.905 756.505 702.883C756.505 704.692 753.646 708.07 745.552 715.826C734.675 726.249 711.584 746.502 702.005 754.022C699.255 756.18 696.555 758.422 696.005 759.003C695.455 759.583 690.506 763.656 685.007 768.054C679.507 772.451 674.472 776.499 673.816 777.049C673.161 777.599 671.135 779.073 669.315 780.326C667.494 781.578 659.48 787.158 651.505 792.726C639.007 801.453 631.037 806.874 613.818 818.363C610.159 820.803 609.732 821.061 595.82 829.216C580.046 838.461 560.072 849.22 552.505 852.547C550.58 853.393 546.298 855.493 542.99 857.213C536.113 860.789 537.583 857.715 527.532 889.549C524.145 900.274 520.978 910.284 520.494 911.793C519.439 915.08 520.259 915.631 529.005 917.504C532.305 918.211 537.48 919.39 540.505 920.125C554.42 923.506 568.293 926.549 569.79 926.549C570.695 926.549 573.527 927.259 576.084 928.127C578.64 928.995 582.819 930.077 585.369 930.532C587.919 930.986 593.155 932.112 597.005 933.033C600.855 933.954 606.93 935.295 610.505 936.012C622.554 938.43 631.035 940.42 633.843 941.488C640.697 944.093 641.943 943.418 655.408 929.799C662.341 922.786 672.511 912.139 678.009 906.137C683.507 900.136 688.68 894.505 689.505 893.624C692.385 890.547 717.03 862.128 720.005 858.452C757.021 812.726 772.158 793.136 786.609 772.251C801.582 750.612 805.871 745.549 809.227 745.549C812.981 745.549 816.386 748.399 817.085 752.125C817.768 755.763 814.529 761.968 800.687 783.549C793.678 794.476 783.196 811.571 782.6 813.047C782.378 813.598 778.738 819.224 774.512 825.549C770.286 831.874 762.166 844.024 756.466 852.549C739.061 878.583 702.621 927.054 686.549 945.549C683.442 949.124 679.968 953.275 678.829 954.773C677.166 956.96 670.489 964.577 662.005 973.964C661.455 974.572 659.318 976.979 657.255 979.313L653.505 983.555L653.605 1024.3C653.66 1046.71 654.017 1066.17 654.399 1067.55C655.205 1070.44 652.785 1069.92 689.018 1075.02C720.075 1079.4 721.727 1079.43 725.289 1075.71C731.532 1069.19 745.54 1053.63 750.187 1048.05C752.936 1044.75 756.158 1040.92 757.347 1039.55C774.584 1019.61 803.596 977.06 821.437 945.549C825.952 937.574 830.073 930.374 830.594 929.549C831.477 928.152 848.7 893.236 854.024 882.049C855.333 879.299 858.507 872.099 861.078 866.049C863.648 859.999 866.821 852.756 868.128 849.953C869.435 847.149 870.505 844.533 870.505 844.138C870.505 843.744 871.556 841.087 872.841 838.235C874.126 835.383 876.207 830.349 877.467 827.049C887.011 802.039 896.259 783.353 907.234 766.899C925.595 739.375 944.179 723.478 966.484 716.221C976.127 713.083 999.618 713.182 1010.96 716.408C1020.23 719.043 1039.66 726.839 1043.42 729.428C1044.84 730.41 1049.83 733.326 1054.5 735.908C1062.93 740.559 1084.2 754.816 1087.21 757.828C1089.74 760.352 1088 762.354 1081.8 764.073C1078.61 764.958 1074.84 766.127 1073.41 766.671C1071.99 767.215 1067.49 768.271 1063.41 769.017C1059.34 769.764 1053.53 770.839 1050.5 771.407C1047.48 771.976 1039.83 773.191 1033.5 774.108C1021.33 775.873 1005.01 779.506 1000 781.564C998.355 782.243 995.88 783.234 994.505 783.766C985.941 787.081 978.446 791.888 970.926 798.889C966.295 803.201 962.505 807.111 962.505 807.577C962.505 808.044 961.155 809.904 959.505 811.71C957.855 813.517 956.505 815.509 956.505 816.137C956.505 816.765 955.664 818.352 954.637 819.664C950.081 825.478 943.29 850.262 941.554 867.405C939.349 889.18 940.876 933.802 944.464 952.419C948.097 971.274 954.497 982.259 966.881 990.901C983.85 1002.74 1001.57 1004.06 1026.5 995.335C1035.6 992.152 1061.86 979.513 1075 971.993C1112.96 950.276 1154.69 916.164 1184.41 882.549C1189.03 877.324 1194.52 871.136 1196.6 868.799C1201.03 863.826 1203.05 863.54 1207.06 867.319C1211.16 871.176 1233.55 889.266 1239.82 893.784C1250.14 901.223 1258.3 906.549 1259.36 906.549C1261.28 906.549 1273.35 898.648 1288.43 887.509C1293.61 883.681 1298.22 880.549 1298.68 880.549C1299.13 880.549 1299.48 879.987 1299.44 879.299C1299.38 877.985 1296.56 875.793 1281.95 865.682C1264.08 853.324 1254.29 845.756 1227 823.232C1220.4 817.784 1202.59 800.888 1187.42 785.687C1172.26 770.486 1156.29 754.899 1151.95 751.049C1147.61 747.199 1141.57 741.798 1138.53 739.047C1135.49 736.296 1130.75 732.246 1128 730.047C1125.25 727.848 1122.55 725.564 1122 724.972C1119.23 721.985 1104.38 711.717 1083 698.008C1076.18 693.63 1060.89 686.003 1047 680.05C1041.13 677.529 1022.92 671.662 1016 670.061C1003.84 667.244 986.668 666.202 973.891 667.506C953.266 669.611 945.477 672.223 924.636 684.024C912.28 691.02 909.718 691.78 903.137 690.404C894.327 688.562 887.436 683.254 875.907 669.432C863.013 653.972 853.168 635.335 848.941 618.381C845.109 603.01 843.538 591.741 843.525 579.549C843.514 568.457 844.161 562.743 847.499 544.443C848.594 538.44 854.823 523.369 858.772 517.17C860.481 514.486 863.663 510.998 865.842 509.42C869.328 506.895 870.66 506.551 876.905 506.565C890.357 506.597 895.487 512.248 890.053 521.049C877.247 541.793 874.852 564.05 883.887 578.362C893.458 593.524 911.943 595.431 948.505 585.03C953.18 583.7 960.605 581.661 965.005 580.5C969.405 579.339 976.155 577.557 980.005 576.54C983.855 575.523 990.155 573.733 994.005 572.562C1013.16 566.735 1034.42 560.573 1042.5 558.503C1046.63 557.447 1051.13 556.159 1052.5 555.641C1053.88 555.122 1060.18 553.308 1066.5 551.61C1072.83 549.911 1082.73 547.146 1088.5 545.465C1094.28 543.784 1101.48 541.743 1104.5 540.931C1107.53 540.118 1112.25 538.799 1115 538.001C1117.75 537.202 1124.73 535.467 1130.5 534.145C1169.42 525.239 1177.51 523.318 1181.64 522.014C1184.19 521.208 1186.99 520.549 1187.87 520.549C1190.55 520.549 1192.1 516.942 1200.56 491.049C1216.82 441.242 1215.6 444.393 1219.5 442.229C1221.43 441.164 1225.7 439.174 1229 437.807C1243.93 431.629 1254.13 427.035 1255.58 425.844C1257.82 424.007 1266.5 403.91 1266.5 400.565C1266.5 398.046 1220.89 354.573 1218.23 354.559C1216.48 354.549 1201.93 359.962 1193.81 363.647C1191.5 364.693 1189.32 365.549 1188.96 365.549C1186.72 365.549 1154.06 379.474 1135 388.551C1094.97 407.621 1086.17 412.2 1049.5 433.06C1025.74 446.582 1022.75 448.21 1012 453.506C1000.68 459.085 985.918 464.612 974.05 467.713C968.212 469.238 961.733 469.95 950.434 470.309C936.812 470.741 933.557 470.519 924.434 468.54C913.945 466.265 899.433 461.307 892.005 457.461C876.61 449.489 862.255 440.875 847.26 430.612C829.702 418.595 773.189 371.871 756.995 355.984C752.686 351.757 747.459 347.071 741.028 341.672C738.815 339.814 731.83 333.472 725.505 327.579C713.075 315.996 687.679 293.357 685.927 292.296C685.334 291.937 682.184 294.371 678.927 297.706ZM96.0559 310.599C57.4159 313.027 37.9749 314.994 28.8149 317.4C15.7159 320.841 8.42091 326.938 2.85391 339.097C-0.990092 347.495 -0.949092 359.504 2.96591 371.549C6.09291 381.167 13.5749 395.676 20.7579 406.049C23.4239 409.899 26.3469 414.174 27.2529 415.549C28.8939 418.039 38.9019 430.124 40.9359 432.073C41.5239 432.636 44.9299 436.222 48.5049 440.041C78.8449 472.455 120.86 501.202 150.218 509.631C165.09 513.902 182.071 514.831 188.189 511.71C190.448 510.558 192.906 509.022 193.651 508.297C194.98 507.004 197.858 504.847 222.005 487.048C228.605 482.184 242.801 471.644 253.551 463.626C264.301 455.609 274.539 448.023 276.301 446.769C278.269 445.369 279.502 443.633 279.496 442.269C279.487 440.104 273.224 432.159 259.505 416.911C255.93 412.937 252.105 408.566 251.005 407.197C249.905 405.828 244.983 400.06 240.067 394.378C229.171 381.786 229.543 382.22 224.282 375.961C209.041 357.828 205.79 354.014 203.985 352.143C202.874 350.991 199.517 347.124 196.525 343.549C193.533 339.974 189.267 335.004 187.045 332.504C179.602 324.132 177.651 321.737 173.911 316.378C171.864 313.447 169.699 310.718 169.098 310.314C167.712 309.383 111.946 309.6 96.0559 310.599ZM232.172 314.216C231.805 314.582 231.505 319.536 231.505 325.223C231.505 334.546 231.774 336.079 234.241 340.806C237.843 347.71 243.101 354.761 258.911 373.893C273.15 391.122 285.87 406.683 293.286 415.942C295.881 419.182 300.564 424.927 303.693 428.708C306.821 432.488 309.674 436.506 310.033 437.637C311.526 442.34 311.18 442.777 283.852 470.718C268.349 486.569 267.598 487.961 270.999 494.537C272.271 496.997 272.975 497.365 275.749 497.019C279.344 496.57 304.824 493.452 324.95 490.998C332.069 490.13 341.069 489.194 344.95 488.918C348.83 488.642 353.13 488.209 354.505 487.957C355.88 487.704 368.436 487.212 382.408 486.863L407.811 486.229L407.157 467.139C406.797 456.64 406.221 442.424 405.877 435.549C405.304 424.119 405.411 422.909 407.128 421.409C408.774 419.97 413.992 419.689 449.505 419.124C524.891 417.925 542.003 417.449 542.931 416.522C544.029 415.426 538.165 388.176 536.192 385.204C534.669 382.911 527.532 380.232 485.005 365.989C467.955 360.28 451.98 354.893 449.505 354.018C443.08 351.749 407.839 342.242 396.005 339.585C390.505 338.351 383.755 336.754 381.005 336.037C378.255 335.32 370.83 333.755 364.505 332.559C358.18 331.362 348.055 329.317 342.005 328.013C335.955 326.709 328.98 325.367 326.505 325.032C324.03 324.697 319.08 323.813 315.505 323.069C311.93 322.325 305.405 321.205 301.005 320.581C296.605 319.956 288.955 318.817 284.005 318.049C258.885 314.152 234.07 312.317 232.172 314.216ZM2014.76 416.42C2018.19 417.985 2025.95 421.406 2032 424.022C2041.53 428.14 2092.5 453.592 2102.5 459.224C2114.16 465.786 2126.89 473.225 2132.7 476.859C2136.38 479.163 2142.68 483.06 2146.7 485.517C2189.33 511.588 2230.03 544.785 2256.46 575.049C2267.01 587.131 2285.5 613.16 2285.5 615.927C2285.5 616.442 2279.6 622.727 2272.38 629.894C2265.17 637.061 2256.99 645.653 2254.21 648.987C2242.94 662.498 2231.13 683.442 2225.98 699.049C2223.27 707.239 2223 709.264 2223 721.549C2223 734.668 2223.09 735.203 2226 740.513C2227.73 743.656 2230.92 747.423 2233.5 749.378C2235.98 751.248 2238.14 753.343 2238.3 754.032C2238.75 755.925 2208.53 785.001 2197 793.768C2196.45 794.186 2193.3 796.703 2190 799.36C2183.9 804.277 2171.52 813.235 2168.32 815.049C2167.35 815.599 2162.16 819.023 2156.78 822.657C2141.2 833.192 2120.13 846.549 2119.11 846.549C2118.91 846.549 2114.98 848.634 2110.38 851.182C2105.77 853.731 2098.63 857.63 2094.5 859.848L2087 863.88L2067.45 864.302C2049.25 864.695 2047 864.539 2034.95 862.064C2019.71 858.932 2001.7 853.122 1990 847.567C1983.89 844.662 1965.99 833.63 1958.5 828.155C1948.68 820.969 1931.95 804.471 1920.88 791.049C1914.65 783.504 1911.6 779.225 1908.79 774.094C1903.38 764.232 1892.43 741.268 1889.19 732.97C1874.13 694.466 1873.42 637.941 1887.51 599.049C1891.77 587.275 1894.62 579.853 1895.94 577.049C1896.72 575.399 1899.25 569.324 1901.56 563.549C1908.84 545.353 1925.08 511.775 1932.03 500.549C1933.9 497.524 1935.92 494.149 1936.52 493.049C1937.9 490.52 1940.92 485.513 1945.97 477.409C1958.81 456.778 1986.81 422.713 1997 415.295C2001.79 411.811 2005.1 412.02 2014.76 416.42ZM1247.97 437.581C1245.79 438.699 1240.97 440.713 1237.26 442.057C1225.79 446.214 1222.5 448.242 1222.5 451.165C1222.5 452.582 1221.88 456.06 1221.12 458.895C1218.29 469.409 1214.37 488.832 1211.48 506.549C1210.99 509.574 1210.28 513.113 1209.9 514.414C1209.21 516.773 1209.23 516.778 1215.61 516.095C1219.13 515.719 1223.35 514.997 1225 514.49C1226.65 513.984 1232.5 513.117 1238 512.565C1243.5 512.012 1251.38 511.146 1255.5 510.64C1265.21 509.45 1295.13 507.27 1303.49 507.146C1311.29 507.029 1311.53 506.555 1308.93 496.157C1307.54 490.607 1307.19 485.482 1307.32 472.776C1307.52 453.995 1309.17 456.566 1294 452.004C1289.05 450.515 1280.36 447.779 1274.68 445.923C1269.01 444.067 1263.25 442.549 1261.89 442.549C1259.42 442.549 1254.5 438.583 1254.5 436.594C1254.5 435.008 1252.35 435.333 1247.97 437.581ZM394.005 532.641C389.055 533.094 379.38 533.946 372.505 534.536C355.526 535.991 334.367 538.746 306.505 543.131C273.122 548.384 274.505 547.783 274.505 557.049C274.505 562.937 274.271 563.656 271.839 565.25C270.373 566.211 262.401 568.711 254.125 570.806C245.848 572.901 237.73 575.401 236.085 576.362C232.876 578.236 226.315 588.134 226.745 590.452C227.087 592.299 247.12 606.359 258.505 612.743C267.182 617.609 270.651 619.598 272.819 620.952C274.021 621.704 279.28 624.54 284.505 627.256C289.73 629.972 295.043 632.836 296.311 633.621C298.751 635.132 299.478 634.58 307.028 625.486C310.755 620.998 330.967 594.479 334.203 589.832C342.022 578.604 344.655 577.055 366.005 571.118C398.952 561.956 408.162 559.221 409.351 558.247C410.408 557.381 410.554 554.773 410.03 546.097C409.663 540.021 409.139 534.261 408.866 533.299C408.319 531.37 408.045 531.357 394.005 532.641ZM2015.65 544.799C1999.37 560.669 1998.2 562.033 1998.93 564.294C1999.24 565.259 2011.42 577.967 2026 592.533C2040.58 607.099 2052.5 619.477 2052.5 620.04C2052.5 620.602 2040.35 633.207 2025.5 648.049C2010.65 662.891 1998.5 675.719 1998.5 676.554C1998.5 678.907 2028.67 708.549 2031.06 708.549C2032.4 708.549 2042.24 699.284 2059.75 681.549C2074.41 666.699 2086.75 654.549 2087.18 654.549C2087.61 654.549 2100.14 666.699 2115.02 681.549C2131.28 697.765 2142.84 708.549 2143.97 708.549C2146.22 708.549 2176.5 678.838 2176.5 676.632C2176.5 675.807 2164.06 662.654 2148.84 647.405L2121.18 619.679L2148.34 592.545C2165.61 575.297 2175.5 564.691 2175.5 563.432C2175.5 560.784 2146.68 531.527 2144.08 531.54C2142.91 531.545 2131.73 541.934 2115.45 558.144C2098.71 574.806 2088.14 584.611 2087.14 584.394C2086.27 584.204 2073.66 572.237 2059.11 557.799C2044.56 543.362 2031.89 531.549 2030.95 531.549C2030.01 531.549 2023.12 537.511 2015.65 544.799ZM204.005 534.494C191.632 535.191 189.589 535.846 191.812 538.398C192.603 539.306 193.988 541.641 194.891 543.588C197.257 548.689 202.358 554.549 204.433 554.549C207.306 554.549 216.199 544.401 217.473 539.667C218.639 535.338 218.231 533.434 216.196 533.711C215.541 533.8 210.055 534.153 204.005 534.494ZM144.505 566.575C137.63 566.975 125.041 567.62 116.529 568.007C108.018 568.394 100.746 568.9 100.369 569.133C99.6379 569.585 102.657 578.248 106.962 588.049C108.412 591.349 110.109 595.242 110.734 596.701C111.712 598.986 113.653 599.929 124.745 603.513C131.827 605.801 138.435 607.533 139.43 607.361C141.243 607.048 178.505 567.981 178.505 566.393C178.505 565.426 162.773 565.51 144.505 566.575ZM1133.5 566.806C1116 574.659 1111.87 598.105 1125.88 610.155C1131.41 614.915 1135.64 616.551 1142.38 616.539C1161 616.507 1174.04 596.427 1165.91 580.282C1163.48 575.453 1157.54 569.649 1152.81 567.475C1148.09 565.307 1137.65 564.945 1133.5 566.806ZM1221 569.965C1215.32 571.991 1213.1 573.457 1209.21 577.745C1195.01 593.392 1199.22 617.228 1217.8 626.374C1223.18 629.024 1225.41 629.549 1231.25 629.549C1240.1 629.549 1246.14 627.004 1252.58 620.566C1262.04 611.11 1264.72 600.32 1260.49 588.716C1254.28 571.699 1237.92 563.93 1221 569.965ZM1047.05 585.278C1041.58 586.666 1034.31 593.59 1032.47 599.141C1030.68 604.564 1031.9 612.186 1035.32 617.016C1038.42 621.403 1047.14 626.553 1051.43 626.543C1059.23 626.527 1069.05 619.958 1072.07 612.74C1074.03 608.052 1073.91 599.607 1071.85 596.522C1065.27 586.675 1056.75 582.814 1047.05 585.278ZM976.78 607.62C972.26 608.553 968.918 610.967 965.963 615.433C959.703 624.893 962.951 637.122 972.926 641.653C980.296 645 987.892 643.461 994.217 637.339C998.287 633.4 1000.26 625.382 998.493 620.011C997.169 616.001 993.297 611.05 990.147 609.342C987.09 607.684 980.55 606.842 976.78 607.62ZM1096 634.61C1087.82 637.012 1081.5 646.256 1081.5 655.834C1081.5 668.35 1090.4 676.843 1103.5 676.843C1108.9 676.843 1110.83 676.366 1114.28 674.19C1126.32 666.59 1127.74 650.055 1117.24 639.799C1114.91 637.525 1111.74 635.189 1110.19 634.607C1106.88 633.364 1100.25 633.365 1096 634.61ZM1381.41 654.403C1375.49 658.208 1373.13 663 1373.71 670.007C1375.03 685.987 1396.38 690.872 1404.24 676.993C1408.11 670.153 1406.8 661.168 1401.13 655.67C1398.27 652.894 1396.82 652.308 1391.87 651.916C1386.65 651.504 1385.5 651.779 1381.41 654.403ZM242.281 660.055C239.56 661.904 238.413 663.524 237.904 666.234C237.297 669.47 237.548 670.172 240.012 672.136C244.019 675.331 248.251 675.729 250.704 673.142C254.166 669.489 251.393 657.549 247.082 657.549C246.47 657.549 244.31 658.677 242.281 660.055ZM1168 662.436C1157.08 667.471 1150.38 677.575 1150.32 689.131C1150.27 696.628 1152.88 701.947 1159.56 707.98C1165.15 713.027 1169.61 714.728 1177.45 714.796C1189.81 714.902 1199.09 708.422 1203.61 696.509C1205.91 690.47 1205.98 686.998 1203.97 680.07C1202.76 675.907 1201.2 673.605 1196.62 669.245C1193.43 666.199 1189.12 662.997 1187.04 662.128C1181.94 659.999 1172.98 660.144 1168 662.436ZM291.275 669.822C288.674 671.571 286.337 673.543 286.083 674.205C285.261 676.35 291.278 683.549 293.893 683.549C296.028 683.549 302.505 678.238 302.505 676.486C302.505 674.518 298.241 666.556 297.208 666.596C296.546 666.622 293.877 668.074 291.275 669.822ZM1497.96 691.802C1493.63 696.338 1477.23 713.099 1461.52 729.049C1445.82 744.999 1431.78 759.624 1430.33 761.549L1427.69 765.049L1430 772.549C1431.97 778.927 1435.52 793.029 1435.89 795.936C1436.15 797.934 1432.7 798.471 1394 802.461C1383 803.595 1371.08 804.956 1367.5 805.485C1363.93 806.014 1357.03 806.76 1352.17 807.142C1346.66 807.576 1343.15 808.302 1342.86 809.068C1342.35 810.39 1345.71 826.153 1348.08 833.549C1350.58 841.366 1359.5 879.802 1359.5 882.763C1359.5 883.376 1350.84 892.466 1340.24 902.963C1311.56 931.384 1306.97 936.468 1308.63 937.978C1310.21 939.413 1338.32 954.825 1346.5 958.748C1378.55 974.102 1417.99 989.952 1436.5 994.92C1440.08 995.879 1443.68 996.948 1444.5 997.295C1445.33 997.643 1448.03 998.408 1450.5 998.995C1453.98 999.819 1455 1000.52 1455 1002.06C1455 1004.32 1452.86 1004.99 1433 1008.99C1416.52 1012.32 1396.76 1013.97 1384.23 1013.07C1360.84 1011.39 1346.02 1012.67 1330.5 1017.7C1307.63 1025.11 1287.46 1043.89 1275.59 1068.82C1263.24 1094.75 1256.11 1131.64 1256.69 1166.65C1256.89 1178.41 1257.42 1185.76 1258.12 1186.65C1258.74 1187.42 1259.56 1189.79 1259.94 1191.92C1260.33 1194.05 1262 1198.76 1263.65 1202.38C1267.23 1210.19 1279.42 1222.96 1286.5 1226.33C1298.15 1231.86 1311.77 1232.93 1327.3 1229.54C1336.1 1227.62 1360.48 1219.92 1371 1215.74C1378.18 1212.89 1404.12 1200.19 1413.78 1194.8C1418.3 1192.27 1424.03 1189.14 1426.5 1187.83C1434.32 1183.71 1456.01 1168.85 1471.8 1156.79C1485.01 1146.7 1509.99 1123.74 1521.56 1111.05C1540.08 1090.75 1559.72 1061.73 1574.5 1032.85C1577.44 1027.11 1580.44 1022.51 1581.36 1022.33C1582.27 1022.15 1586.15 1022.38 1590 1022.83C1593.85 1023.29 1610.55 1023.75 1627.1 1023.86C1651.35 1024.01 1657.52 1023.78 1658.85 1022.68C1660.15 1021.59 1660.51 1019.47 1660.52 1012.68C1660.53 1004.6 1661.36 1000 1665.88 983.17C1666.75 979.936 1667.22 976.898 1666.92 976.419C1666.62 975.932 1652.85 975.832 1635.7 976.191C1592.79 977.09 1559.8 974.129 1506.88 964.629C1477.45 959.346 1413.28 938.662 1392.04 927.61C1389.86 926.477 1387.52 925.549 1386.83 925.549C1384.77 925.549 1383.54 922.247 1384.77 920.023C1385.64 918.44 1392.41 909.089 1396.32 904.049C1396.75 903.499 1399.03 900.305 1401.39 896.952C1406.38 889.858 1406.8 893.06 1397.47 866.549C1388.1 839.9 1385.07 830.651 1385.56 830.175C1385.8 829.936 1389.6 829.256 1394 828.663C1398.4 828.071 1405.94 826.897 1410.75 826.054C1429.48 822.774 1436.47 821.6 1449 819.625C1467.13 816.77 1466.82 816.866 1466.19 814.253C1465.91 813.041 1462.71 803.406 1459.09 792.843C1455.47 782.28 1452.5 772.641 1452.5 771.424C1452.5 770.207 1453.89 766.758 1455.58 763.761C1458.6 758.41 1477.19 729.753 1490.43 710.049C1499.85 696.024 1506.84 684.553 1506.3 684.014C1506.05 683.762 1502.3 687.267 1497.96 691.802ZM216.505 698.615C211.28 701.264 205.88 703.699 204.505 704.028C203.13 704.356 200.918 705.453 199.588 706.467L197.172 708.309L199.488 713.179C202.812 720.17 204.505 726.233 204.505 731.149C204.505 733.504 204.878 735.662 205.334 735.943C206.841 736.875 234.206 721.971 235.89 719.301C237.412 716.888 232.909 699.251 230.136 696.76C226.607 693.591 226.346 693.626 216.505 698.615ZM294.289 717.639C290.434 720.517 289.661 725.555 292.471 729.501C294.388 732.193 295.217 732.549 299.573 732.549H304.505V726.999C304.505 716.783 300.434 713.053 294.289 717.639ZM1340 741.117C1335.04 744.484 1332.9 747.155 1331.15 752.158C1328.55 759.632 1331.66 768.478 1338.69 773.569C1342.24 776.137 1343.69 776.549 1349.2 776.549C1356.23 776.549 1359.63 775.217 1363.63 770.888C1367.62 766.578 1368.5 764.215 1368.5 757.849C1368.5 750.652 1366.31 746.21 1360.57 741.799C1356.84 738.926 1355.62 738.549 1350.07 738.549C1344.97 738.549 1343.07 739.034 1340 741.117ZM451.414 757.841C446.961 762.176 433.849 775.922 425.434 785.076C422.921 787.811 418.075 793.649 414.666 798.049C411.257 802.449 408.103 806.511 407.656 807.075C407.21 807.639 405.997 809.439 404.961 811.075C403.925 812.711 401.671 815.849 399.952 818.049C398.233 820.249 393.604 827.257 389.666 833.622C383.874 842.981 382.505 845.967 382.505 849.237C382.505 854.185 384.944 857.542 390.295 859.954C395.039 862.094 400.095 861.455 417.005 856.579C423.055 854.835 431.155 852.582 435.005 851.574C456.747 845.877 498.602 832.368 512.505 826.559C516.63 824.836 523.38 822.057 527.505 820.385C531.63 818.712 535.387 816.985 535.853 816.548C537.225 815.261 546.626 777.269 545.778 776.434C545.353 776.015 540.28 774.575 534.505 773.234C528.73 771.893 519.955 769.618 515.005 768.179C506.075 765.583 500.549 764.087 489.005 761.137C467.434 755.625 458.809 753.554 457.414 753.552C456.539 753.55 453.839 755.48 451.414 757.841ZM127.005 774.242C119.982 775.018 116.54 780.022 113.524 793.84C112.774 797.275 112.793 799.219 113.591 800.709C114.635 802.661 115.323 802.756 124.854 802.269C130.437 801.983 135.758 801.445 136.677 801.072C139.139 800.075 141.685 792.961 142.234 785.549C142.673 779.611 142.502 778.851 140.253 776.759C137.627 774.317 133.475 773.528 127.005 774.242ZM1541.5 783.424C1525.37 788.714 1519.09 805.466 1527.73 820.185C1531.28 826.24 1539.54 830.549 1547.6 830.549C1556.17 830.549 1561.82 827.241 1567.66 818.801C1574.83 808.442 1570.99 792.461 1559.75 785.856C1555.18 783.171 1546 781.947 1541.5 783.424ZM1824.85 838.397C1816.29 841.353 1811.14 846.646 1802.32 861.549C1796.9 870.7 1789.27 882.706 1786.63 886.222C1773.56 903.666 1759.22 918.841 1740.94 934.549C1717.83 954.415 1705.8 969.661 1698.16 988.742C1693.95 999.266 1693.23 1004.1 1693.31 1021.14C1693.44 1046.04 1697.18 1058.16 1712.58 1083.47C1722.29 1099.43 1728.67 1107.99 1739.76 1119.91C1757.61 1139.11 1771.42 1149.23 1783 1151.6C1791.08 1153.26 1805.65 1152.99 1813 1151.05C1827.72 1147.17 1842.69 1132.85 1852.74 1113.05C1867.08 1084.79 1880.2 1045.71 1887.16 1010.55C1887.97 1006.42 1889.28 1000.12 1890.07 996.549C1890.86 992.974 1891.95 986.674 1892.5 982.549C1893.05 978.424 1893.94 972.349 1894.47 969.049C1896.47 956.747 1897.57 945.58 1898.41 929.049C1899.62 905.382 1899.28 897.938 1896.76 893.039C1895.61 890.792 1888.93 883.586 1881.57 876.65C1874.35 869.842 1863.48 858.749 1857.42 851.999C1845.6 838.833 1842.13 836.521 1834.23 836.582C1831.91 836.6 1827.68 837.416 1824.85 838.397ZM1468.45 858.398C1461.12 863.094 1458.5 867.349 1458.5 874.575C1458.5 885.437 1467.31 894.549 1477.82 894.549C1486.76 894.549 1496.5 884.561 1496.5 875.4C1496.5 869.201 1492.53 861.149 1488.5 859.198C1487.68 858.798 1485.88 857.82 1484.5 857.025C1480.28 854.584 1473.5 855.164 1468.45 858.398ZM488.505 881.243C487.68 881.538 482.505 883.576 477.005 885.772C471.505 887.969 465.205 890.354 463.005 891.074C460.805 891.794 455.855 893.573 452.005 895.028C448.155 896.482 443.655 898.041 442.005 898.492C440.355 898.942 431.805 901.444 423.005 904.05C414.205 906.656 403.855 909.687 400.005 910.784C381.901 915.942 374.873 918.404 368.005 921.991C356.952 927.765 347.392 934.683 336.887 944.51L330.326 950.648L330.796 955.849C331.054 958.709 332.388 966.224 333.759 972.549C337.145 988.162 339.665 1001.04 340.513 1007.05C340.9 1009.8 341.925 1015.42 342.79 1019.55C343.655 1023.67 344.659 1028.96 345.022 1031.3C345.53 1034.57 346.116 1035.55 347.577 1035.55C349.417 1035.55 375.41 1030.64 384.505 1028.57C386.98 1028.01 392.605 1027.07 397.005 1026.49C401.405 1025.91 407.539 1024.75 410.636 1023.9L416.267 1022.35L431.136 1030.15C439.314 1034.43 450.955 1040.56 457.005 1043.75C463.055 1046.94 473.63 1052.44 480.505 1055.96C487.38 1059.48 494.319 1063.05 495.925 1063.9C499.545 1065.81 499.863 1065.65 512.362 1055.65C517.666 1051.41 526.28 1044.72 531.505 1040.78C545.853 1029.96 579.277 1002.96 582.505 999.573C582.78 999.285 587.252 995.224 592.442 990.549C608.625 975.973 607.225 977.549 605.265 976.116C604.319 975.424 599.598 974.313 594.775 973.647C589.951 972.982 582.855 971.771 579.005 970.956C572.208 969.518 551.136 965.416 541.005 963.558C511.703 958.184 500.876 956.167 494.505 954.894C490.38 954.071 483.94 952.818 480.194 952.112C476.448 951.405 472.988 950.427 472.504 949.938C471.62 949.045 472.892 943.879 478.017 927.549C480.963 918.162 482.81 912.009 484.87 904.718C485.621 902.061 487.142 897.449 488.25 894.468C490.617 888.105 492.039 880.515 490.843 880.628C490.382 880.671 489.33 880.948 488.505 881.243ZM279.003 987.299C267.95 1001.85 266.782 1003.81 263.685 1013.05C259.654 1025.07 254.956 1040.91 254.196 1045.05C253.893 1046.7 253.34 1048.84 252.968 1049.8C251.936 1052.47 254.469 1052.01 263.233 1047.94C267.508 1045.96 272.58 1043.67 274.505 1042.85C281.537 1039.85 308.038 1027.24 309.18 1026.35C310.359 1025.43 310.179 1024.81 303.375 1006.55C302.248 1003.52 300.955 999.548 300.502 997.714C300.048 995.88 299.224 993.18 298.669 991.714C298.115 990.248 296.448 985.112 294.966 980.299C293.483 975.487 291.977 971.549 291.619 971.549C291.262 971.549 285.584 978.637 279.003 987.299ZM201.505 1015.03C194.63 1016.83 185.18 1019.23 180.505 1020.38C175.83 1021.52 170.205 1022.91 168.005 1023.45C160.625 1025.28 149.022 1027.57 147.2 1027.56C145.967 1027.55 144.62 1029.3 142.95 1033.08C139.898 1039.98 139.906 1040.29 143.217 1042.9C146.342 1045.38 173.149 1061.89 178.804 1064.83L182.602 1066.81L184.87 1064.68C190.122 1059.74 210.764 1030.78 212.445 1025.99C214.558 1019.97 215.959 1011.5 214.816 1011.66C214.37 1011.72 208.38 1013.24 201.505 1015.03ZM602.926 1037.33C585.482 1054.29 576.591 1062.64 567.019 1071.05C562.635 1074.9 556.085 1080.75 552.465 1084.05C540.832 1094.65 518.071 1113.66 500.971 1127.05C497.459 1129.8 490.181 1135.52 484.796 1139.76C479.411 1144 470.319 1150.97 464.591 1155.26C451.914 1164.74 448.458 1168.79 447.762 1174.96C447.277 1179.27 447.485 1179.76 451.406 1183.68L455.564 1187.84L466.785 1187.27C500.441 1185.56 581.635 1164.91 612.329 1150.25L618.825 1147.14L618.167 1095.6C617.805 1067.24 617.509 1039.66 617.507 1034.3C617.506 1028.94 617.168 1024.56 616.755 1024.58C616.342 1024.6 610.12 1030.33 602.926 1037.33ZM308.505 1061.64C302.18 1064.96 296.021 1068.32 294.819 1069.1C291.557 1071.21 285.903 1074.33 277.374 1078.74C268.494 1083.32 266.197 1085.26 263.627 1090.34C260.806 1095.91 255.775 1108.76 251.802 1120.55C249.856 1126.32 247.928 1131.5 247.518 1132.05C247.108 1132.6 244.739 1138.9 242.254 1146.05C230.177 1180.8 229.892 1183.82 238.175 1189.25C241.596 1191.49 248.833 1190.4 263.151 1185.48C269.671 1183.24 276.355 1181.06 278.005 1180.64C279.655 1180.21 282.522 1179.08 284.376 1178.12C286.23 1177.16 292.53 1174.42 298.376 1172.04C304.222 1169.66 315.08 1164.93 322.505 1161.54C329.93 1158.14 338.03 1154.49 340.505 1153.42C347.483 1150.41 347.891 1150.1 349.753 1146.46C351.571 1142.91 362.505 1115.25 362.505 1114.2C362.505 1113.88 363.57 1111.23 364.872 1108.33C366.174 1105.42 368.046 1100.8 369.032 1098.05C370.018 1095.3 371.933 1090.57 373.286 1087.55C377.842 1077.37 379.471 1071.76 378.18 1070.72C377.534 1070.19 371.605 1068.41 365.005 1066.76C358.405 1065.1 346.71 1061.9 339.017 1059.65C331.323 1057.39 323.898 1055.56 322.517 1055.57C321.135 1055.58 314.83 1058.31 308.505 1061.64ZM406.471 1064.3C404.645 1069.11 402.827 1073.5 402.431 1074.05C402.034 1074.6 398.566 1082.47 394.723 1091.55C390.879 1100.62 386.94 1109.85 385.969 1112.05C382.08 1120.86 381.708 1121.91 382.117 1122.98C382.351 1123.59 387.821 1125.15 394.274 1126.46C413.726 1130.38 411.579 1130.68 423.505 1122.44C438.784 1111.89 472.508 1085.56 472.487 1084.21C472.468 1082.97 469.632 1081.52 451.505 1073.49C438.611 1067.77 410.331 1055.55 410.004 1055.55C409.887 1055.55 408.297 1059.49 406.471 1064.3ZM659.62 1109.86C658.457 1111.74 657.505 1113.71 657.505 1114.24C657.505 1114.77 655.963 1118.76 654.079 1123.12C652.195 1127.48 650.362 1132.22 650.006 1133.66C649.411 1136.06 649.661 1136.31 653.182 1136.89C659.487 1137.94 662.963 1137.65 669.846 1135.52C677.213 1133.25 680.188 1130.37 685.523 1120.36L688.642 1114.51L684.323 1112.55C681.948 1111.47 679.233 1110.58 678.29 1110.57C677.347 1110.56 674.647 1109.91 672.29 1109.14C662.892 1106.05 661.943 1106.1 659.62 1109.86ZM147.834 1136.07C142.771 1141.35 142.389 1144.16 146.255 1147.68C149.921 1151.02 157.285 1154.17 158.525 1152.93C160.509 1150.94 166.608 1140.07 166.802 1138.16C167.066 1135.58 160.276 1131.59 155.584 1131.56C152.821 1131.55 151.328 1132.42 147.834 1136.07ZM384.698 1159.04C378.957 1163.87 379.549 1167.91 386.454 1171.03C392.06 1173.55 395.053 1172.18 395.985 1166.67C397.473 1157.86 391.165 1153.6 384.698 1159.04ZM685.655 1174.24C683.567 1175.08 679.526 1184.62 679.515 1188.74C679.507 1191.75 680.021 1192.72 682.255 1193.96C687.495 1196.85 691.625 1198.62 694.448 1199.19C697.128 1199.72 697.401 1199.44 699.395 1194.11C700.555 1191.01 701.505 1187.55 701.505 1186.42C701.505 1183.92 691.106 1173.52 688.71 1173.63C687.772 1173.67 686.397 1173.95 685.655 1174.24ZM10.5759 1186.48C5.06792 1191.86 5.62691 1197.81 12.0049 1201.71C16.4089 1204.4 20.1589 1204.05 23.5819 1200.63C27.8489 1196.36 27.5589 1192.37 22.6229 1187.43C17.8619 1182.67 14.7259 1182.42 10.5759 1186.48ZM350.455 1203.2C346.908 1205.76 342.18 1209.47 339.95 1211.45C335.644 1215.27 324.993 1224.48 321.249 1227.62L319.005 1229.5L328.005 1238.05C332.955 1242.75 338.805 1247.78 341.005 1249.22C343.205 1250.66 347.189 1253.66 349.858 1255.87C353.694 1259.06 355.057 1259.69 356.358 1258.87C357.264 1258.3 360.046 1252.67 362.54 1246.35C365.034 1240.03 368.484 1231.98 370.205 1228.46C371.927 1224.93 373.867 1220.04 374.518 1217.58C375.666 1213.24 375.616 1213.04 372.759 1210.58C365.33 1204.19 358.226 1198.55 357.597 1198.55C357.216 1198.55 354.003 1200.64 350.455 1203.2ZM206.705 1210.75C203.44 1214.01 206.91 1221.04 211.229 1219.91C213.95 1219.2 215.883 1214.12 214.452 1211.45C213.296 1209.29 208.59 1208.86 206.705 1210.75ZM120.621 1219.33C119.614 1221.21 113.505 1244.53 113.505 1246.49C113.505 1248.8 118.172 1247.31 125.405 1242.71C129.585 1240.05 135.367 1236.56 138.254 1234.96C141.141 1233.36 143.503 1231.34 143.504 1230.48C143.505 1229.61 142.267 1226.46 140.755 1223.48L138.005 1218.05L129.811 1217.76C122.667 1217.51 121.49 1217.71 120.621 1219.33ZM649.728 1231.11C644.885 1234.5 648.327 1241.94 654.654 1241.76C658.311 1241.66 659.468 1240.27 659.49 1235.95C659.517 1230.43 654.353 1227.87 649.728 1231.11Z" fill="black"/>
</svg>
